<?xml version="1.0" encoding="UTF-8" standalone="no"?>
<!DOCTYPE svg PUBLIC "-//W3C//DTD SVG 1.1//EN" "http://www.w3.org/Graphics/SVG/1.1/DTD/svg11.dtd">
<svg width="100%" height="100%" viewBox="0 0 539 740" version="1.1" xmlns="http://www.w3.org/2000/svg" xmlns:xlink="http://www.w3.org/1999/xlink" xml:space="preserve" xmlns:serif="http://www.serif.com/" style="fill-rule:evenodd;clip-rule:evenodd;stroke-linejoin:round;stroke-miterlimit:2;">
    <g transform="matrix(0.778957,0,0,0.778957,-128.328408,77.982383)">
        <path d="M190.489,172.119C170.905,131.404 146.546,49.536 185.365,-64.766C193.856,-89.765 208.378,-96.96 218.724,-99.225C233.311,-102.42 248.206,-96.31 257.856,-85.245C298.158,-39.034 336.169,-9.149 366.454,9.914C402.369,-6.323 443.51,-15.549 487.219,-15.549C530.892,-15.549 572.002,-6.339 607.895,9.874C638.17,-9.191 676.156,-39.066 716.43,-85.245C726.08,-96.31 740.975,-102.42 755.562,-99.225C765.907,-96.96 780.43,-89.765 788.92,-64.766C831.11,59.46 798.675,145.375 778.848,181.787C781.505,195.154 782.899,208.973 782.899,223.115C782.899,306.587 734.353,378.809 663.979,413.066C772.283,426.363 856.263,518.777 856.263,630.65C856.263,751.645 758.031,849.877 637.036,849.877C632.9,849.877 628.791,849.762 624.712,849.536C621.916,849.762 619.09,849.877 616.237,849.877L261.071,849.877C207.906,849.877 164.744,806.714 164.744,753.55L164.744,237.643C164.744,212.346 174.516,189.314 190.489,172.119ZM672.073,142.089C671.726,142.273 671.38,142.463 671.037,142.661L539.429,218.674C525.262,226.856 520.4,245.003 528.577,259.173C536.088,272.187 552.002,277.348 565.523,271.766C567.8,314.024 592.638,347.351 622.901,347.351C654.662,347.351 680.448,310.642 680.448,265.426C680.448,245.629 675.505,227.462 667.282,213.294L700.671,194.009C710.516,188.323 715.868,177.825 715.472,167.193C715.299,162.526 714.018,157.833 711.523,153.51C703.543,139.683 686.077,134.72 672.073,142.089ZM259.336,163.503C257.391,175.329 262.782,187.665 273.767,194.009L307.156,213.294C298.933,227.462 293.99,245.629 293.99,265.426C293.99,310.642 319.776,347.351 351.537,347.351C381.8,347.351 406.638,314.024 408.915,271.766C422.436,277.348 438.35,272.187 445.861,259.173C454.038,245.003 449.176,226.856 435.009,218.674L303.401,142.661C301.964,141.831 300.486,141.135 298.981,140.57C285.656,135.561 270.263,140.777 262.915,153.51C261.078,156.693 259.899,160.076 259.336,163.503Z"/>
    </g>
</svg>
