<?xml version="1.0" encoding="UTF-8" standalone="no"?>
<!DOCTYPE svg PUBLIC "-//W3C//DTD SVG 1.1//EN" "http://www.w3.org/Graphics/SVG/1.1/DTD/svg11.dtd">
<svg width="100%" height="100%" viewBox="0 0 3334 2778" version="1.1" xmlns="http://www.w3.org/2000/svg" xmlns:xlink="http://www.w3.org/1999/xlink" xml:space="preserve" xmlns:serif="http://www.serif.com/" style="fill-rule:evenodd;clip-rule:evenodd;stroke-linejoin:round;stroke-miterlimit:2;">
    <g transform="matrix(69.444444,0,0,69.444444,-55555.555556,-39305.416667)">
        <path d="M831.14,592.326C829.346,592.326 827.838,590.884 827.838,589.106C827.838,587.329 829.346,585.839 831.14,585.839C832.934,585.839 834.389,587.329 834.389,589.106C834.389,590.884 832.934,592.326 831.14,592.326M831.902,598.574C830.231,600.229 827.654,601.033 824.024,601.033C824.016,601.033 824.008,601.031 823.999,601.031C823.991,601.031 823.982,601.033 823.973,601.033C820.343,601.033 817.768,600.229 816.098,598.574C815.585,598.066 815.585,597.244 816.098,596.737C816.61,596.23 817.439,596.23 817.952,596.737C819.104,597.879 821.073,598.435 823.973,598.435C823.982,598.435 823.991,598.436 823.999,598.436C824.008,598.436 824.016,598.435 824.024,598.435C826.923,598.435 828.894,597.879 830.048,596.737C830.561,596.229 831.39,596.23 831.902,596.737C832.413,597.246 832.413,598.067 831.902,598.574M813.611,589.106C813.611,587.33 815.115,585.839 816.908,585.839C818.702,585.839 820.157,587.33 820.157,589.106C820.157,590.884 818.702,592.326 816.908,592.326C815.115,592.326 813.611,590.884 813.611,589.106M839.996,568.598C841.211,568.598 842.199,569.578 842.199,570.78C842.199,571.984 841.211,572.963 839.996,572.963C838.781,572.963 837.793,571.984 837.793,570.78C837.793,569.578 838.781,568.598 839.996,568.598M848,585.57C848,582.418 845.413,579.854 842.231,579.854C840.854,579.854 839.59,580.336 838.596,581.137C835.079,578.946 830.615,577.626 825.83,577.347L828.326,569.527L835.186,571.128C835.365,573.603 837.453,575.562 839.996,575.562C842.655,575.562 844.82,573.417 844.82,570.78C844.82,568.145 842.655,566 839.996,566C838.136,566 836.519,567.049 835.713,568.582L827.742,566.722C827.075,566.566 826.4,566.947 826.193,567.595L823.094,577.301C817.938,577.425 813.092,578.75 809.317,581.068C808.337,580.309 807.106,579.854 805.769,579.854C802.587,579.854 800,582.418 800,585.57C800,587.519 800.99,589.242 802.497,590.273C802.434,590.727 802.402,591.183 802.402,591.645C802.402,595.585 804.713,599.251 808.91,601.965C812.933,604.567 818.258,606 823.903,606C829.547,606 834.872,604.567 838.895,601.965C843.092,599.251 845.404,595.585 845.404,591.645C845.404,591.224 845.375,590.807 845.322,590.392C846.931,589.377 848,587.595 848,585.57"/>
    </g>
</svg>
