<?xml version="1.0" encoding="UTF-8" standalone="no"?>
<!DOCTYPE svg PUBLIC "-//W3C//DTD SVG 1.1//EN" "http://www.w3.org/Graphics/SVG/1.1/DTD/svg11.dtd">
<svg width="100%" height="100%" viewBox="0 0 216 216" version="1.1" xmlns="http://www.w3.org/2000/svg" xmlns:xlink="http://www.w3.org/1999/xlink" xml:space="preserve" xmlns:serif="http://www.serif.com/" style="fill-rule:evenodd;clip-rule:evenodd;stroke-linejoin:round;stroke-miterlimit:2;">
    <g>
        <path d="M108,0C48.3,0 0,48.3 0,108C0,137.8 12.1,164.8 31.6,184.4L11,205C7,209 9.9,216 15.6,216L108,216C167.6,216 216,167.6 216,108C216,48.3 167.6,0 108,0Z" style="fill:rgb(255,69,0);fill-rule:nonzero;"/>
        <circle cx="169.2" cy="107" r="25.2" style="fill:url(#_Radial1);"/>
        <circle cx="46.8" cy="107" r="25.2" style="fill:url(#_Radial2);"/>
        <ellipse cx="108.1" cy="128.6" rx="72" ry="54" style="fill:url(#_Radial3);"/>
        <path d="M86.8,123.5C86.4,132.6 80.3,135.9 73.2,135.9C66.1,135.9 60.7,131 61.2,121.9C61.7,112.8 67.7,106.9 74.8,106.9C81.9,106.9 87.2,114.4 86.8,123.5Z" style="fill:url(#_Radial4);fill-rule:nonzero;"/>
        <path d="M129.4,123.5C129.8,132.6 135.9,135.9 143,135.9C150.1,135.9 155.5,131 155,121.9C154.6,112.8 148.5,106.9 141.4,106.9C134.3,106.9 128.9,114.4 129.4,123.5Z" style="fill:url(#_Radial5);fill-rule:nonzero;"/>
        <ellipse cx="79.6" cy="116.4" rx="2.8" ry="3.1" style="fill:rgb(255,196,156);"/>
        <ellipse cx="146.2" cy="116.4" rx="2.8" ry="3.1" style="fill:rgb(255,196,156);"/>
        <path d="M108.1,142.9C99.3,142.9 90.9,143.3 83.2,144.1C81.9,144.2 81,145.6 81.5,146.8C85.8,157.2 96.1,164.5 108.1,164.5C120.1,164.5 130.3,157.2 134.7,146.8C135.2,145.6 134.4,144.2 133.1,144.1C125.2,143.4 116.8,142.9 108.1,142.9Z" style="fill:url(#_Radial6);fill-rule:nonzero;"/>
        <circle cx="147.5" cy="49.4" r="17.9" style="fill:url(#_Radial7);"/>
        <path d="M107.8,76.9C105.7,76.9 103.9,76 103.9,74.6C103.9,58.6 116.9,45.6 132.9,45.6C135,45.6 136.8,47.3 136.8,49.5C136.8,51.7 135.1,53.4 132.9,53.4C121.2,53.4 111.6,62.9 111.6,74.7C111.7,76 109.9,76.9 107.8,76.9Z" style="fill:url(#_Radial8);fill-rule:nonzero;"/>
        <path d="M62.8,122.7C63.2,114.1 68.9,108.5 75.5,108.5C81.8,108.5 86.6,114.9 86.8,122.8C87,113.9 81.7,106.8 74.7,106.8C67.7,106.8 61.6,112.9 61.1,122C60.7,131.2 66.1,135.8 73.1,135.8L73.6,135.8C67.3,135.7 62.4,131.1 62.8,122.7Z" style="fill:rgb(132,33,35);fill-rule:nonzero;"/>
        <path d="M153.3,122.7C152.9,114.1 147.2,108.5 140.6,108.5C134.3,108.5 129.5,114.9 129.3,122.8C129.1,113.9 134.4,106.8 141.4,106.8C148.5,106.8 154.5,112.9 155,122C155.5,131.1 150,135.8 143,135.8L142.5,135.8C148.8,135.7 153.7,131.1 153.3,122.7Z" style="fill:rgb(132,33,35);fill-rule:nonzero;"/>
    </g>
    <defs>
        <radialGradient id="_Radial1" cx="0" cy="0" r="1" gradientUnits="userSpaceOnUse" gradientTransform="matrix(50.98,0,0,-44.3526,169.75,91.845333)"><stop offset="0" style="stop-color:rgb(254,255,255);stop-opacity:1"/><stop offset="0.4" style="stop-color:rgb(254,255,255);stop-opacity:1"/><stop offset="0.51" style="stop-color:rgb(249,252,252);stop-opacity:1"/><stop offset="0.62" style="stop-color:rgb(237,243,245);stop-opacity:1"/><stop offset="0.7" style="stop-color:rgb(222,233,236);stop-opacity:1"/><stop offset="0.72" style="stop-color:rgb(216,228,232);stop-opacity:1"/><stop offset="0.76" style="stop-color:rgb(204,216,223);stop-opacity:1"/><stop offset="0.8" style="stop-color:rgb(200,213,221);stop-opacity:1"/><stop offset="0.83" style="stop-color:rgb(204,214,222);stop-opacity:1"/><stop offset="0.85" style="stop-color:rgb(216,219,226);stop-opacity:1"/><stop offset="0.88" style="stop-color:rgb(237,227,233);stop-opacity:1"/><stop offset="0.9" style="stop-color:rgb(255,235,239);stop-opacity:1"/><stop offset="1" style="stop-color:rgb(255,235,239);stop-opacity:1"/></radialGradient>
        <radialGradient id="_Radial2" cx="0" cy="0" r="1" gradientUnits="userSpaceOnUse" gradientTransform="matrix(50.98,0,0,-50.98,47.31,92.19)"><stop offset="0" style="stop-color:rgb(254,255,255);stop-opacity:1"/><stop offset="0.4" style="stop-color:rgb(254,255,255);stop-opacity:1"/><stop offset="0.51" style="stop-color:rgb(249,252,252);stop-opacity:1"/><stop offset="0.62" style="stop-color:rgb(237,243,245);stop-opacity:1"/><stop offset="0.7" style="stop-color:rgb(222,233,236);stop-opacity:1"/><stop offset="0.72" style="stop-color:rgb(216,228,232);stop-opacity:1"/><stop offset="0.76" style="stop-color:rgb(204,216,223);stop-opacity:1"/><stop offset="0.8" style="stop-color:rgb(200,213,221);stop-opacity:1"/><stop offset="0.83" style="stop-color:rgb(204,214,222);stop-opacity:1"/><stop offset="0.85" style="stop-color:rgb(216,219,226);stop-opacity:1"/><stop offset="0.88" style="stop-color:rgb(237,227,233);stop-opacity:1"/><stop offset="0.9" style="stop-color:rgb(255,235,239);stop-opacity:1"/><stop offset="1" style="stop-color:rgb(255,235,239);stop-opacity:1"/></radialGradient>
        <radialGradient id="_Radial3" cx="0" cy="0" r="1" gradientUnits="userSpaceOnUse" gradientTransform="matrix(153.78,0,0,-107.646,109.61,85.47301)"><stop offset="0" style="stop-color:rgb(254,255,255);stop-opacity:1"/><stop offset="0.4" style="stop-color:rgb(254,255,255);stop-opacity:1"/><stop offset="0.51" style="stop-color:rgb(249,252,252);stop-opacity:1"/><stop offset="0.62" style="stop-color:rgb(237,243,245);stop-opacity:1"/><stop offset="0.7" style="stop-color:rgb(222,233,236);stop-opacity:1"/><stop offset="0.72" style="stop-color:rgb(216,228,232);stop-opacity:1"/><stop offset="0.76" style="stop-color:rgb(204,216,223);stop-opacity:1"/><stop offset="0.8" style="stop-color:rgb(200,213,221);stop-opacity:1"/><stop offset="0.83" style="stop-color:rgb(204,214,222);stop-opacity:1"/><stop offset="0.85" style="stop-color:rgb(216,219,226);stop-opacity:1"/><stop offset="0.88" style="stop-color:rgb(237,227,233);stop-opacity:1"/><stop offset="0.9" style="stop-color:rgb(255,235,239);stop-opacity:1"/><stop offset="1" style="stop-color:rgb(255,235,239);stop-opacity:1"/></radialGradient>
        <radialGradient id="_Radial4" cx="0" cy="0" r="1" gradientUnits="userSpaceOnUse" gradientTransform="matrix(13.7495,0,0,-19.9175,74.649321,127.514005)"><stop offset="0" style="stop-color:rgb(255,102,0);stop-opacity:1"/><stop offset="0.5" style="stop-color:rgb(255,69,0);stop-opacity:1"/><stop offset="0.7" style="stop-color:rgb(252,67,1);stop-opacity:1"/><stop offset="0.82" style="stop-color:rgb(244,63,7);stop-opacity:1"/><stop offset="0.92" style="stop-color:rgb(229,56,18);stop-opacity:1"/><stop offset="1" style="stop-color:rgb(212,48,31);stop-opacity:1"/></radialGradient>
        <radialGradient id="_Radial5" cx="0" cy="0" r="1" gradientUnits="userSpaceOnUse" gradientTransform="matrix(-13.7495,0,0,-19.9175,141.568546,127.514005)"><stop offset="0" style="stop-color:rgb(255,102,0);stop-opacity:1"/><stop offset="0.5" style="stop-color:rgb(255,69,0);stop-opacity:1"/><stop offset="0.7" style="stop-color:rgb(252,67,1);stop-opacity:1"/><stop offset="0.82" style="stop-color:rgb(244,63,7);stop-opacity:1"/><stop offset="0.92" style="stop-color:rgb(229,56,18);stop-opacity:1"/><stop offset="1" style="stop-color:rgb(212,48,31);stop-opacity:1"/></radialGradient>
        <radialGradient id="_Radial6" cx="0" cy="0" r="1" gradientUnits="userSpaceOnUse" gradientTransform="matrix(45.3,0,0,-29.898,107.93,167.593574)"><stop offset="0" style="stop-color:rgb(23,46,53);stop-opacity:1"/><stop offset="0.29" style="stop-color:rgb(14,28,33);stop-opacity:1"/><stop offset="0.73" style="stop-color:rgb(3,7,8);stop-opacity:1"/><stop offset="1" style="stop-color:black;stop-opacity:1"/></radialGradient>
        <radialGradient id="_Radial7" cx="0" cy="0" r="1" gradientUnits="userSpaceOnUse" gradientTransform="matrix(39.77,0,0,-38.9746,147.88,32.821202)"><stop offset="0" style="stop-color:rgb(254,255,255);stop-opacity:1"/><stop offset="0.4" style="stop-color:rgb(254,255,255);stop-opacity:1"/><stop offset="0.51" style="stop-color:rgb(249,252,252);stop-opacity:1"/><stop offset="0.62" style="stop-color:rgb(237,243,245);stop-opacity:1"/><stop offset="0.7" style="stop-color:rgb(222,233,236);stop-opacity:1"/><stop offset="0.72" style="stop-color:rgb(216,228,232);stop-opacity:1"/><stop offset="0.76" style="stop-color:rgb(204,216,223);stop-opacity:1"/><stop offset="0.8" style="stop-color:rgb(200,213,221);stop-opacity:1"/><stop offset="0.83" style="stop-color:rgb(204,214,222);stop-opacity:1"/><stop offset="0.85" style="stop-color:rgb(216,219,226);stop-opacity:1"/><stop offset="0.88" style="stop-color:rgb(237,227,233);stop-opacity:1"/><stop offset="0.9" style="stop-color:rgb(255,235,239);stop-opacity:1"/><stop offset="1" style="stop-color:rgb(255,235,239);stop-opacity:1"/></radialGradient>
        <radialGradient id="_Radial8" cx="0" cy="0" r="1" gradientUnits="userSpaceOnUse" gradientTransform="matrix(32.6,0,0,-32.6,131.31,73.08)"><stop offset="0" style="stop-color:rgb(122,146,153);stop-opacity:1"/><stop offset="0.48" style="stop-color:rgb(122,146,153);stop-opacity:1"/><stop offset="0.67" style="stop-color:rgb(23,46,53);stop-opacity:1"/><stop offset="0.75" style="stop-color:black;stop-opacity:1"/><stop offset="0.82" style="stop-color:rgb(23,46,53);stop-opacity:1"/><stop offset="1" style="stop-color:rgb(23,46,53);stop-opacity:1"/></radialGradient>
    </defs>
</svg>
