<?xml version="1.0" encoding="UTF-8" standalone="no"?>
<!DOCTYPE svg PUBLIC "-//W3C//DTD SVG 1.1//EN" "http://www.w3.org/Graphics/SVG/1.1/DTD/svg11.dtd">
<svg width="100%" height="100%" viewBox="0 0 2829 2790" version="1.1" xmlns="http://www.w3.org/2000/svg" xmlns:xlink="http://www.w3.org/1999/xlink" xml:space="preserve" xmlns:serif="http://www.serif.com/" style="fill-rule:evenodd;clip-rule:evenodd;stroke-linejoin:round;stroke-miterlimit:2;">
    <g transform="matrix(92.592593,0,0,92.592593,-277.700114,-277.977892)">
        <path d="M33.48,29.63L26.74,11.82C26.446,11.045 25.699,10.53 24.87,10.53C24.627,10.53 24.387,10.574 24.16,10.66L21,11.85L21,8.92C21,7.867 20.133,7 19.08,7L14,7L14,4.92C14,3.867 13.133,3 12.08,3L5,3C3.903,3 3,3.903 3,5L3,32C3,32.549 3.451,33 4,33L20,33C20.549,33 21,32.549 21,32L21,19.27L26,32.48C26.147,32.867 26.52,33.125 26.935,33.125C27.056,33.125 27.177,33.103 27.29,33.06L32.9,30.92C33.287,30.773 33.545,30.4 33.545,29.985C33.545,29.864 33.523,29.743 33.48,29.63ZM12,5L12,31L5,31L5,5L12,5ZM19,31L14,31L14,9L19,9L19,31ZM27.51,30.75L21.13,13.92L24.87,12.5L31.26,29.33L27.51,30.75Z" style="fill-rule:nonzero;"/>
    </g>
</svg>
